<?xml version="1.0" encoding="UTF-8"?>
<svg width="54px" height="29px" viewBox="0 0 54 29" version="1.1" xmlns="http://www.w3.org/2000/svg" xmlns:xlink="http://www.w3.org/1999/xlink">
    <title>Airplane by ahmad from the Noun Project</title>
    <defs>
        <path d="M2.05114754,16.966791 C2.32725687,17.4801517 2.86116593,17.7989887 3.44487703,17.7989887 L23.3379345,17.7989887 C24.0432221,17.7989887 24.680398,18.1595131 25.0429301,18.7628158 C25.4061896,19.3668523 25.4245037,20.0980852 25.0920001,20.7189405 L25.0920001,20.7189855 L25.0920001,20.7190828 L21.9735045,26.5567947 C21.8321515,26.8215175 21.8629075,27.1454743 22.0518682,27.3787529 C22.882392,28.4091256 24.1186608,29 25.4428103,29 C26.8475282,29 28.1291997,28.3513549 28.9589961,27.2200653 L35.8082645,17.8808957 L50.7694387,17.8808957 C51.9141595,17.8808957 52.9490182,17.2951381 53.5371241,16.3144923 C54.125965,15.3338464 54.1545235,14.1462463 53.6140253,13.1378114 C52.0789413,10.2785073 49.1076559,8.50222911 45.8587943,8.50222911 L36.1836134,8.50222911 L30.4530647,1.5784757 C28.9846299,-0.197076095 26.3788014,-0.520301255 24.519276,0.841342018 L24.1750505,1.09290411 C23.8989442,1.29473637 23.7949469,1.65745485 23.9216456,1.97409779 L26.5298514,8.50222911 L7.30528162,8.50222911 L4.62768021,4.14160989 C4.45117495,3.85348241 4.1047566,3.71965892 3.77811253,3.81399658 C2.40855134,4.21327296 1.28507172,5.12591003 0.615671671,6.3851732 C-0.0537287568,7.64371002 -0.181896285,9.08359858 0.253873162,10.4401199 L1.94714869,15.7075278 C1.80653065,16.1177745 1.83948777,16.5733629 2.05114754,16.966791 L2.05114754,16.966791 Z M25.5314334,1.96239357 C26.7413335,1.17188325 28.3664955,1.40808683 29.2973569,2.53205882 L34.2387647,8.50222911 L28.1444015,8.50222911 L25.5314334,1.96239357 L25.5314334,1.96239357 Z M1.68202482,9.98233736 C1.37076098,9.0141221 1.4623097,7.98594798 1.94055727,7.08720172 C2.32945426,6.35592389 2.93293963,5.78845271 3.67118432,5.44840882 L6.24625231,9.64229347 C6.38247632,9.86460624 6.62489581,9.99988994 6.8856249,9.99988994 L27.6363091,9.99988994 L45.8587943,9.99988994 C48.5539734,9.99988994 51.0184488,11.473416 52.2913383,13.8449619 C52.580629,14.384644 52.5652472,15.0201239 52.2503228,15.5451813 C51.9353984,16.0702463 51.3817158,16.3832274 50.7694387,16.3832274 L36.8544777,16.3832274 C36.9650672,16.0782887 36.8793765,15.7287347 36.6043651,15.5276363 C36.2682017,15.2826564 35.8002099,15.3557797 35.556322,15.6892488 L34.8232033,16.6896338 L27.7490961,26.3352166 C27.2049305,27.0767339 26.3641546,27.5023392 25.4428103,27.5023392 C24.7367952,27.5023392 24.0688558,27.2463912 23.5510589,26.7871477 L26.4154221,21.4239419 C26.417342,21.4203326 26.4185344,21.4164911 26.4204543,21.4128817 C26.4216468,21.4104555 26.4237542,21.4088155 26.4249391,21.4063893 L29.2365724,15.7894349 C29.4218657,15.4194078 29.2717232,14.9696677 28.9011365,14.7846542 C28.5305499,14.6011009 28.0794022,14.749549 27.8948363,15.1195761 L26.3941831,18.1175486 C26.3715643,18.0763255 26.3540826,18.0333651 26.3297313,17.9927785 C25.6932904,16.9338874 24.5749307,16.3013278 23.3379345,16.3013278 L3.44487703,16.3013278 C3.4302295,16.3013278 3.39580771,16.3013278 3.37237137,16.2581802 C3.34893503,16.2143063 3.36797659,16.1850569 3.3767654,16.1726189 C3.5020032,15.9824908 3.53496032,15.7462872 3.46538401,15.5298303 L1.68202482,9.98233736 L1.68202482,9.98233736 Z" id="path-1"></path>
    </defs>
    <g id="FINAL" stroke="none" stroke-width="1" fill="none" fill-rule="evenodd">
        <g id="Desktop-Copy-49" transform="translate(-629.000000, -739.000000)">
            <rect id="Rectangle" fill="#95788F" x="0" y="0" width="1024" height="1886"></rect>
            <g id="Group-12" transform="translate(33.000000, 582.000000)">
                <rect id="Rectangle-Copy" fill="#FFFFFF" x="0" y="0" width="948" height="383"></rect>
                <g id="Group-10" transform="translate(39.000000, 54.000000)">
                    <g id="Group-3" transform="translate(557.000000, 103.000000)">
                        <mask id="mask-2" fill="white">
                            <use xlink:href="#path-1"></use>
                        </mask>
                        <g id="Clip-2"></g>
                        <polygon id="Fill-1" fill="#000000" mask="url(#mask-2)" points="-4 -4 58 -4 58 33 -4 33"></polygon>
                    </g>
                </g>
            </g>
        </g>
    </g>
</svg>
