<?xml version="1.0" encoding="UTF-8"?>
<svg width="74px" height="74px" viewBox="0 0 74 74" version="1.1" xmlns="http://www.w3.org/2000/svg" xmlns:xlink="http://www.w3.org/1999/xlink">
    <title>Champagne by andriwidodo from the Noun Project</title>
    <g id="FINAL" stroke="none" stroke-width="1" fill="none" fill-rule="evenodd">
        <g id="Desktop-Copy-49" transform="translate(-72.000000, -1054.000000)">
            <rect id="Rectangle" fill="#95788F" x="0" y="0" width="1024" height="1886"></rect>
            <g id="Group-13" transform="translate(33.000000, 1013.000000)">
                <rect id="Rectangle-Copy-2" fill="#FFFFFF" x="0" y="0" width="948" height="406"></rect>
                <g id="Group-8" transform="translate(39.000000, 41.000000)" fill="#000000" fill-rule="nonzero">
                    <g id="noun_Champagne_1432143">
                        <path d="M15.9382598,34.4931091 C15.2429165,33.9168255 14.9409794,33.3490542 14.8246448,32.6595568 C14.7083102,31.9700594 14.8131001,31.1341502 15.0963882,30.1688539 C15.6629642,28.2365587 16.9284358,25.8463011 17.9425892,23.1513026 C18.115759,22.711216 17.8839779,22.2200555 17.4248559,22.0549166 C17.3333867,22.0217186 17.2374773,22.0038427 17.1397918,22.0004378 C16.7508258,21.9885206 16.3991579,22.2209067 16.2721667,22.5733165 C15.305968,25.1389278 14.0316159,27.5070534 13.3868914,29.7074865 C13.0645292,30.8081286 12.8940236,31.8823826 13.0716336,32.9310996 C13.2483556,33.9798166 13.8078273,34.9774598 14.7775781,35.7810222 C15.1416787,36.0959778 15.7038145,36.0678871 16.0315051,35.718031 C16.3600837,35.3690262 16.330778,34.8301967 15.9657894,34.5160924 C15.9569089,34.5075801 15.9480284,34.499919 15.9382598,34.4931091 Z" id="Path"></path>
                        <path d="M0.622463327,70.0586196 C0.626699495,70.0594708 0.630088429,70.0611732 0.634324597,70.0620245 L15.1389636,73.9691156 C15.5896919,74.0942446 16.0565176,73.8278134 16.1810609,73.3749653 C16.3056042,72.9221173 16.0404201,72.4530961 15.5896919,72.3279671 C15.5854557,72.3271158 15.5820668,72.3262646 15.5778306,72.3245622 L9.14563321,70.5914821 L16.1200601,44.4335497 C18.9854041,45.0328073 22.0235837,44.7851028 24.5983266,43.4631611 C27.4213089,42.0135367 29.634283,39.2257974 30.2849584,35.0939847 L30.2849584,35.0939847 L33.957716,11.7033624 C34.0390504,11.4539555 34.0017722,11.1807145 33.8568952,10.9628026 C33.7179489,10.7440396 33.4866541,10.6018861 33.2299424,10.5754984 L16.5165654,6.07595948 C16.3945638,6.02063031 16.2615481,5.99424255 16.1276852,6.00105229 C16.0048363,6.00701082 15.8845292,6.04020832 15.775236,6.09809115 C15.543094,6.21385682 15.3770362,6.43006622 15.3236605,6.68543165 L6.86657486,28.7915658 C5.37290205,32.6961033 5.9015758,36.2209975 7.62484892,38.8946735 C9.19646722,41.3325622 11.7034314,43.0733032 14.4832048,43.99347 L7.50877792,70.1514024 L1.07319159,68.4174711 C0.622463327,68.292342 0.155637621,68.5587733 0.0310942835,69.0116213 C-0.0942962873,69.4653206 0.170887825,69.9334905 0.622463327,70.0586196 Z M16.6800815,7.88309552 L32.1853034,12.0574691 L31.2067486,18.2883856 L14.4272874,13.7701199 L16.6800815,7.88309552 Z M9.04650688,37.9685482 C7.59689021,35.7204812 7.1198977,32.8731567 8.44751273,29.4018892 L13.816432,15.3687075 L30.9415644,19.979756 L28.6099776,34.8284046 L28.6099776,34.8284046 C28.0321643,38.502262 26.2012925,40.7281973 23.8264968,41.9471417 C21.451701,43.166086 18.4796056,43.3320735 15.7337216,42.592365 C12.9869903,41.8535077 10.4961235,40.2174665 9.04650688,37.9685482 Z" id="Shape"></path>
                        <path d="M59.0342136,22.5729975 C58.8930737,22.2413119 58.5167007,22.0142349 58.0859627,22.0006273 C57.5088575,21.9827673 57.022709,22.3484719 57.000754,22.8179345 C56.9955265,22.9310478 57.0174816,23.044161 57.0666192,23.1504705 C58.2626489,25.8481795 59.792187,28.2431192 60.4957953,30.180503 C60.8481223,31.1491948 60.9882167,31.9877639 60.862759,32.6757988 C60.7383468,33.3638337 60.3943837,33.9259981 59.5809999,34.4992188 C59.1398071,34.8028386 59.0843966,35.3394888 59.4576332,35.6983896 C59.8308697,36.0572903 60.4905679,36.1023655 60.9307152,35.7987457 C60.9369881,35.7944933 60.943261,35.790241 60.9495339,35.7851381 C62.0911986,34.980588 62.7393965,33.9753257 62.9307195,32.9241377 C63.1209969,31.8720992 62.9004005,30.7979484 62.4999815,29.6982832 C61.7033253,27.4981025 60.1696054,25.1312285 59.0342136,22.5729975 Z" id="Path"></path>
                        <path d="M72.9467757,68.4072024 C72.9391535,68.4089047 72.9306845,68.4114583 72.9230623,68.4140118 L66.489125,70.1470208 L59.5097808,43.9918635 C62.2901699,43.0717344 64.7978557,41.3310648 66.3688645,38.8924249 C68.0914693,36.2188585 68.6182442,32.6941089 67.1234568,28.7897315 L67.1234568,28.7897315 L58.669651,6.68620621 C58.616296,6.42914888 58.4477619,6.21124598 58.2131692,6.09548507 C58.0979901,6.03505106 57.9701075,6.0027061 57.840531,6.00007272 C57.7151891,5.99845018 57.591541,6.02398568 57.4780557,6.07590785 L40.7720075,10.5752622 C40.5103138,10.6016489 40.2757211,10.7480524 40.1368287,10.9727648 C39.9970894,11.1889653 39.9623663,11.457088 40.0419754,11.7022288 L43.7133086,35.0935943 L43.7133086,35.0935943 C44.3637316,39.2252375 46.5758475,42.0128625 49.3985819,43.4624275 C51.9723262,44.784315 55.0084807,45.0320093 57.8727134,44.4336275 L64.8520576,70.5896361 L58.4147326,72.3234963 C57.9607915,72.438406 57.6863943,72.9014496 57.8007265,73.3568327 C57.9150587,73.8130669 58.375775,74.0888502 58.8288692,73.9739405 C58.8364913,73.9722381 58.8449604,73.9696846 58.8525825,73.967131 L73.3600653,70.0602001 C73.8140064,69.9452904 74.0884036,69.4822467 73.9740715,69.0268637 C73.8605862,68.5689272 73.3998699,68.2922926 72.9467757,68.4072024 Z M41.8137006,12.056321 L57.3129092,7.8821186 L59.5648296,13.7697528 L42.7918759,18.2878332 L41.8137006,12.056321 Z M50.1701124,41.9447679 C47.7962376,40.7258735 45.965229,38.5000295 45.3867929,34.8263228 L45.3867929,34.8263228 L43.0561103,19.978283 L60.1746012,15.3674237 L65.5414383,29.4000299 L65.5414383,29.4000299 L65.5414383,29.4000299 C66.8710791,32.871155 66.3942716,35.7183628 64.9460641,37.9663376 C63.4978565,40.2143124 61.0071089,41.8511377 58.2605959,42.5899647 C55.5157768,43.3296429 52.5439871,43.1645134 50.1701124,41.9447679 Z" id="Shape"></path>
                        <path d="M37.9998931,5.07235129 C37.9998931,5.06294411 37.9998931,5.05447765 37.9998931,5.04601119 L37.9998931,0.953888021 C38.0078922,0.434611702 37.5659395,0.00752574375 37.0139986,0 C37.0039997,0 36.9950007,0 36.9850017,0 C36.4330608,0.00752574375 35.992108,0.434611702 36.0001071,0.953888021 L36.0001071,5.04601119 C35.992108,5.56528751 36.4340607,5.99237346 36.9860016,5.99989921 C37.5389424,6.00742495 37.9928939,5.59256833 37.9998931,5.07235129 Z" id="Path"></path>
                        <path d="M32.5376947,6.87676784 C32.972486,6.61574126 33.1285418,6.0269813 32.8849865,5.56100052 C32.8804762,5.55229963 32.875966,5.54456551 32.8714557,5.53586462 L30.6884785,1.49478644 C30.5225,1.17768748 30.2049761,0.986267986 29.8658028,1.00076946 C29.3678675,1.0220383 28.9808851,1.47158407 29.0007304,2.00523842 C29.0070448,2.16668819 29.0503435,2.32427091 29.1279204,2.46251832 L31.3108976,6.50359651 C31.5535508,6.97054406 32.1029034,7.13779442 32.5376947,6.87676784 Z" id="Path"></path>
                        <path d="M42.6755672,6.53001701 C42.6800777,6.52131598 42.6845881,6.51358174 42.6890986,6.50488072 L44.8721663,2.46373843 C45.1274589,2.00548449 44.9885364,1.4118813 44.5609438,1.13731565 C44.4238255,1.04933863 44.2668612,1.00196639 44.1071905,1 C43.7779262,0.997132483 43.4721163,1.18662145 43.3115435,1.49405764 L41.1284758,5.53519992 C40.8722811,5.99345386 41.0112036,6.58705705 41.4387962,6.8616227 C41.8654867,7.13715513 42.4193725,6.98827094 42.6755672,6.53001701 Z" id="Path"></path>
                    </g>
                </g>
            </g>
        </g>
    </g>
</svg>
