<?xml version="1.0" encoding="UTF-8"?>
<svg width="83px" height="64px" viewBox="0 0 83 64" version="1.1" xmlns="http://www.w3.org/2000/svg" xmlns:xlink="http://www.w3.org/1999/xlink">
    <title>Hotel by Made by Made from the Noun Project</title>
    <g id="FINAL" stroke="none" stroke-width="1" fill="none" fill-rule="evenodd">
        <g id="Desktop-Copy-49" transform="translate(-533.000000, -1054.000000)">
            <rect id="Rectangle" fill="#95788F" x="0" y="0" width="1024" height="1886"></rect>
            <g id="Group-13" transform="translate(33.000000, 1013.000000)">
                <rect id="Rectangle-Copy-2" fill="#FFFFFF" x="0" y="0" width="948" height="406"></rect>
                <g id="Group-8" transform="translate(39.000000, 41.000000)" fill="#000000" fill-rule="nonzero">
                    <g id="noun_Hotel_3790117" transform="translate(461.000000, 0.000000)">
                        <path d="M81.9625,61.9291396 L78.0688354,61.9291396 L78.0688354,57.1926027 C80.8658554,56.6946053 82.9989868,54.2293285 82.9989868,51.2654222 L82.9989868,47.4533404 C82.9989868,44.1316724 80.3221557,41.4288355 77.0313354,41.4288355 C73.7410217,41.4288355 71.0641907,44.1316724 71.0641907,47.4533404 L71.0641907,51.2654222 C71.0641907,54.2292653 73.1972588,56.6945422 75.9938354,57.1926027 L75.9938354,61.9291396 L67.5180481,61.9291396 L67.5180481,46.385553 L68.3736816,46.385553 C68.9466369,46.385553 69.4111816,45.9219351 69.4111816,45.3501228 L69.4111816,37.6855126 C69.4111816,37.1137004 68.9466369,36.6500825 68.3736816,36.6500825 L67.5180481,36.6500825 L67.5180481,10.6748402 L69.7977111,10.6748402 C70.3706665,10.6748402 70.8352111,10.2112223 70.8352111,9.63941004 L70.8352111,1.03543018 C70.8352111,0.463617901 70.3706665,0 69.7977111,0 L13.2022889,0 C12.6293335,0 12.1647889,0.463617901 12.1647889,1.03543018 L12.1647889,9.63941004 C12.1647889,10.2112223 12.6293335,10.6748402 13.2022889,10.6748402 L15.4824585,10.6748402 L15.4824585,61.9291396 L7.00565795,61.9291396 L7.00565795,57.1926027 C9.80267796,56.6946053 11.9358093,54.2293285 11.9358093,51.2654222 L11.9358093,47.4533404 C11.9358093,44.1316724 9.25897826,41.4288355 5.96815795,41.4288355 C2.67733764,41.4288355 0,44.1316724 0,47.4533404 L0,51.2654222 C0,54.2293285 2.13363805,56.6946053 4.93065795,57.1926027 L4.93065795,61.9291396 L1.0375,61.9291396 C0.464544671,61.9291396 0,62.3927575 0,62.9645698 C0,63.5363821 0.464544671,64 1.0375,64 L81.9625,64 C82.5354553,64 83,63.5363821 83,62.9645698 C83,62.3927575 82.5354553,61.9291396 81.9625,61.9291396 Z M73.1391907,51.2654222 L73.1391907,47.4533404 C73.1391907,45.2732745 74.8854127,43.4996959 77.0313354,43.4996959 C79.1777649,43.4996959 80.9239868,45.2732745 80.9239868,47.4533404 L80.9239868,51.2654222 C80.9239868,53.4454882 79.1777648,55.2190668 77.0313354,55.2190668 C74.8854126,55.2190668 73.1391907,53.4454881 73.1391907,51.2654222 Z M2.07550661,51.2654222 L2.07550661,47.4533404 C2.07550661,45.2732745 3.82172857,43.4996959 5.96815795,43.4996959 C8.11458734,43.4996959 9.86080929,45.2732745 9.86080929,47.4533404 L9.86080929,51.2654222 C9.86080929,53.4454882 8.11458734,55.2190668 5.96815795,55.2190668 C3.82172857,55.2190668 2.07550661,53.4454881 2.07550661,51.2654222 Z M65.4430481,61.9291396 L59.6876587,61.9291396 L59.6876587,51.8791977 C59.6876587,51.3073854 59.223114,50.8437675 58.6501587,50.8437675 L49.8516723,50.8437675 C49.2787169,50.8437675 48.8141723,51.3073854 48.8141723,51.8791977 L48.8141723,61.9291396 L42.5420592,61.9291396 L42.5420592,46.385553 L65.4430481,46.385553 L65.4430481,61.9291396 L65.4430481,61.9291396 Z M57.6126587,61.9291396 L50.8891723,61.9291396 L50.8891723,52.9146279 L57.6126587,52.9146279 L57.6126587,61.9291396 Z M67.3361817,38.7209429 L67.3361817,44.3146927 L41.1656494,44.3146927 L41.1656494,38.7209429 L67.3361817,38.7209429 Z M14.2397889,2.07086036 L68.7602112,2.07086036 L68.7602112,8.60397986 L14.2397889,8.60397986 L14.2397889,2.07086036 Z M17.5574585,10.6748402 L65.4430482,10.6748402 L65.4430482,36.6500826 L40.1281494,36.6500826 C39.5551941,36.6500826 39.0906494,37.1137005 39.0906494,37.6855127 L39.0906494,45.3501229 C39.0906494,45.9219352 39.5551941,46.3855531 40.1281494,46.3855531 L40.4670594,46.3855531 L40.4670594,61.9291396 L17.5574585,61.9291396 L17.5574585,10.6748402 Z" id="Shape"></path>
                        <path d="M49.5,21 C50.3283692,21 51,20.5574324 51,20.011583 L51,15.988417 C51,15.4425676 50.3283692,15 49.5,15 C48.6716308,15 48,15.4425676 48,15.988417 L48,20.011583 C48,20.5574324 48.6716308,21 49.5,21 Z" id="Path"></path>
                        <path d="M57.5,21 C58.3283692,21 59,20.5574324 59,20.011583 L59,15.988417 C59,15.4425676 58.3283692,15 57.5,15 C56.6716308,15 56,15.4425676 56,15.988417 L56,20.011583 C56,20.5574324 56.6716309,21 57.5,21 Z" id="Path"></path>
                        <path d="M49.5,32 C50.3283692,32 51,31.5574324 51,31.011583 L51,26.988417 C51,26.4425676 50.3283692,26 49.5,26 C48.6716308,26 48,26.4425676 48,26.988417 L48,31.011583 C48,31.5574324 48.6716308,32 49.5,32 Z" id="Path"></path>
                        <path d="M57.5,32 C58.3283692,32 59,31.5574324 59,31.011583 L59,26.988417 C59,26.4425676 58.3283692,26 57.5,26 C56.6716308,26 56,26.4425676 56,26.988417 L56,31.011583 C56,31.5574324 56.6716309,32 57.5,32 Z" id="Path"></path>
                        <path d="M25.5,15 C24.6716309,15 24,15.4425676 24,15.988417 L24,20.011583 C24,20.5574324 24.6716309,21 25.5,21 C26.3283691,21 27,20.5574324 27,20.011583 L27,15.988417 C27,15.4425676 26.3283692,15 25.5,15 Z" id="Path"></path>
                        <path d="M33.5,15 C32.6716308,15 32,15.4425676 32,15.988417 L32,20.011583 C32,20.5574324 32.6716308,21 33.5,21 C34.3283692,21 35,20.5574324 35,20.011583 L35,15.988417 C35,15.4425676 34.3283692,15 33.5,15 Z" id="Path"></path>
                        <path d="M41.5,21 C42.3283692,21 43,20.5574324 43,20.011583 L43,15.988417 C43,15.4425676 42.3283692,15 41.5,15 C40.6716308,15 40,15.4425676 40,15.988417 L40,20.011583 C40,20.5574324 40.6716308,21 41.5,21 Z" id="Path"></path>
                        <path d="M25.5,26 C24.6716309,26 24,26.4425676 24,26.988417 L24,31.011583 C24,31.5574324 24.6716309,32 25.5,32 C26.3283691,32 27,31.5574324 27,31.011583 L27,26.988417 C27,26.4425676 26.3283692,26 25.5,26 Z" id="Path"></path>
                        <path d="M33.5,26 C32.6716308,26 32,26.4425676 32,26.988417 L32,31.011583 C32,31.5574324 32.6716308,32 33.5,32 C34.3283692,32 35,31.5574324 35,31.011583 L35,26.988417 C35,26.4425676 34.3283692,26 33.5,26 Z" id="Path"></path>
                        <path d="M25.5,37 C24.6716309,37 24,37.4426032 24,37.9884965 L24,42.0115035 C24,42.5573968 24.6716309,43 25.5,43 C26.3283691,43 27,42.5573968 27,42.0115035 L27,37.9884965 C27,37.4426032 26.3283692,37 25.5,37 Z" id="Path"></path>
                        <path d="M33.5,37 C32.6716308,37 32,37.4426032 32,37.9884965 L32,42.0115035 C32,42.5573968 32.6716308,43 33.5,43 C34.3283692,43 35,42.5573968 35,42.0115035 L35,37.9884965 C35,37.4426032 34.3283692,37 33.5,37 Z" id="Path"></path>
                        <path d="M25.5,48 C24.6716309,48 24,48.4425676 24,48.988417 L24,53.011583 C24,53.5574324 24.6716309,54 25.5,54 C26.3283691,54 27,53.5574324 27,53.011583 L27,48.988417 C27,48.4425677 26.3283692,48 25.5,48 Z" id="Path"></path>
                        <path d="M33.5,48 C32.6716308,48 32,48.4425676 32,48.988417 L32,53.011583 C32,53.5574324 32.6716308,54 33.5,54 C34.3283692,54 35,53.5574324 35,53.011583 L35,48.988417 C35,48.4425677 34.3283692,48 33.5,48 Z" id="Path"></path>
                        <path d="M41.5,32 C42.3283692,32 43,31.5574324 43,31.011583 L43,26.988417 C43,26.4425676 42.3283692,26 41.5,26 C40.6716308,26 40,26.4425676 40,26.988417 L40,31.011583 C40,31.5574324 40.6716308,32 41.5,32 Z" id="Path"></path>
                    </g>
                </g>
            </g>
        </g>
    </g>
</svg>
