<?xml version="1.0" encoding="UTF-8"?>
<svg width="48px" height="25px" viewBox="0 0 48 25" version="1.1" xmlns="http://www.w3.org/2000/svg" xmlns:xlink="http://www.w3.org/1999/xlink">
    <title>Train by Eris Natansa from the Noun Project</title>
    <g id="FINAL" stroke="none" stroke-width="1" fill="none" fill-rule="evenodd">
        <g id="Desktop-Copy-49" transform="translate(-751.000000, -739.000000)">
            <rect id="Rectangle" fill="#95788F" x="0" y="0" width="1024" height="1886"></rect>
            <g id="Group-12" transform="translate(33.000000, 582.000000)">
                <rect id="Rectangle-Copy" fill="#FFFFFF" x="0" y="0" width="948" height="383"></rect>
                <g id="Group-10" transform="translate(39.000000, 54.000000)" fill="#000000" fill-rule="nonzero">
                    <g id="Group" transform="translate(679.000000, 103.000000)">
                        <path d="M33.7341935,0 L3.35483871,0 C1.50503226,0 0,1.51767498 0,3.38302036 L0,20.5791731 C0,21.0106383 0.346322581,21.3598701 0.774193548,21.3598701 L2.88929032,21.3598701 C3.25625806,23.4255944 5.04774194,25 7.20103226,25 C8.69729032,25 10.0196129,24.2390807 10.8108387,23.0820877 C11.6020645,24.2390807 12.9243871,25 14.4206452,25 C16.5734194,25 18.3649032,23.4255944 18.731871,21.3598701 L29.9050323,21.3598701 C30.272,23.4255944 32.0634839,25 34.2167742,25 C35.7130323,25 37.0353548,24.2390807 37.8265806,23.0820877 C38.6178065,24.2390807 39.940129,25 41.4363871,25 C43.5891613,25 45.3806452,23.4255944 45.748129,21.3598701 L47.2258065,21.3598701 C47.6536774,21.3598701 48,21.0106383 48,20.5791731 L48,14.385123 C48,6.45324145 41.6005161,0 33.7341935,0 Z M7.20103226,23.438606 C5.90554839,23.438606 4.81032258,22.5585002 4.47225806,21.3598701 L9.92929032,21.3598701 C9.59174194,22.5585002 8.49651613,23.438606 7.20103226,23.438606 Z M14.4206452,23.438606 C13.1251613,23.438606 12.0299355,22.5585002 11.6923871,21.3598701 L17.1489032,21.3598701 C16.8113548,22.5585002 15.716129,23.438606 14.4206452,23.438606 Z M34.2172903,23.438606 C32.9218065,23.438606 31.8265806,22.5585002 31.4885161,21.3598701 L36.9455484,21.3598701 C36.608,22.5585002 35.5127742,23.438606 34.2172903,23.438606 Z M41.4369032,23.438606 C40.1414194,23.438606 39.0461935,22.5585002 38.7086452,21.3598701 L44.1656774,21.3598701 C43.828129,22.5585002 42.7323871,23.438606 41.4369032,23.438606 Z M45.0472258,19.7984761 L37.8270968,19.7984761 L30.6069677,19.7984761 L18.0309677,19.7984761 L10.8108387,19.7984761 L3.59122581,19.7984761 L1.5483871,19.7984761 L1.5483871,16.7032727 L46.4516129,16.7032727 L46.4516129,19.7984761 L45.0472258,19.7984761 Z M46.4516129,15.1418787 L1.5483871,15.1418787 L1.5483871,3.38302036 C1.5483871,2.37852355 2.35870968,1.56139401 3.35483871,1.56139401 L33.7341935,1.56139401 C40.7463226,1.56139401 46.4516129,7.31409002 46.4516129,14.385123 L46.4516129,15.1418787 Z" id="Shape"></path>
                        <path d="M14.1739178,4 L5.82608217,4 C5.36953409,4 5,4.364105 5,4.8139456 L5,11.1860544 C5,11.635895 5.36953409,12 5.82608217,12 L14.1739178,12 C14.6304659,12 15,11.635895 15,11.1860544 L15,4.8139456 C15,4.364105 14.6299152,4 14.1739178,4 Z M13.3478357,10.3721088 L6.65216434,10.3721088 L6.65216434,5.6278912 L13.3478357,5.6278912 L13.3478357,10.3721088 Z" id="Shape"></path>
                        <path d="M27.1739178,4 L18.8260822,4 C18.3695341,4 18,4.364105 18,4.8139456 L18,11.1860544 C18,11.635895 18.3695341,12 18.8260822,12 L27.1739178,12 C27.6304659,12 28,11.635895 28,11.1860544 L28,4.8139456 C28,4.364105 27.6304659,4 27.1739178,4 Z M26.3478357,10.3721088 L19.6521643,10.3721088 L19.6521643,5.6278912 L26.3478357,5.6278912 L26.3478357,10.3721088 Z" id="Shape"></path>
                        <path d="M33.7067959,4 L31.8260822,4 C31.3695341,4 31,4.364105 31,4.8139456 L31,11.1860544 C31,11.635895 31.3695341,12 31.8260822,12 L40.1739178,12 C40.6304659,12 41,11.635895 41,11.1860544 C41,7.22376721 37.7281639,4 33.7067959,4 Z M32.6521643,10.3721088 L32.6521643,5.6278912 L33.7067959,5.6278912 C36.5369534,5.6278912 38.8868818,7.69205725 39.287807,10.3721088 L32.6521643,10.3721088 Z" id="Shape"></path>
                    </g>
                </g>
            </g>
        </g>
    </g>
</svg>
